<?xml version="1.0" encoding="utf-8"?>
<svg version="1.1" xmlns:xlink="http://www.w3.org/1999/xlink" width="30px" height="30px" xmlns="http://www.w3.org/2000/svg">
  <g transform="matrix(1 0 0 1 -665 -1256 )">
    <path d="M 25.0060096153846 18.75  C 25.2584134615385 18.8671875  25.3846153846154 19.0559895833333  25.3846153846154 19.31640625  L 25.3846153846154 24.375  C 25.3846153846154 25.9244791666667  24.8768028846154 27.2493489583333  23.8611778846154 28.349609375  C 22.8455528846154 29.4498697916667  21.6225961538462 30  20.1923076923077 30  L 5.19230769230769 30  C 3.76201923076923 30  2.5390625 29.4498697916667  1.5234375 28.349609375  C 0.5078125 27.2493489583333  0 25.9244791666667  0 24.375  L 0 8.125  C 0 6.57552083333333  0.5078125 5.25065104166667  1.5234375 4.150390625  C 2.5390625 3.05013020833333  3.76201923076923 2.5  5.19230769230769 2.5  L 9.78966346153846 2.5  C 9.94591346153846 2.5  10.0811298076923 2.56184895833333  10.1953125 2.685546875  C 10.3094951923077 2.80924479166666  10.3665865384615 2.95572916666666  10.3665865384615 3.125  C 10.3665865384615 3.4765625  10.2103365384615 3.68489583333333  9.89783653846154 3.75  C 8.97235576923077 4.08854166666667  8.17307692307692 4.47916666666666  7.5 4.921875  C 7.37980769230769 4.97395833333333  7.28365384615385 5  7.21153846153846 5  L 5.19230769230769 5  C 4.39903846153846 5  3.71995192307692 5.30598958333333  3.15504807692308 5.91796875  C 2.59014423076923 6.52994791666666  2.30769230769231 7.265625  2.30769230769231 8.125  L 2.30769230769231 24.375  C 2.30769230769231 25.234375  2.59014423076923 25.9700520833333  3.15504807692308 26.58203125  C 3.71995192307692 27.1940104166667  4.39903846153846 27.5  5.19230769230769 27  L 20.1923076923077 27  C 20.9855769230769 27.5  21.6646634615385 27.1940104166667  22.2295673076923 26.58203125  C 22.7944711538462 25.9700520833333  23.0769230769231 25.234375  23.0769230769231 24.375  L 23.0769230769231 20.1953125  C 23.0769230769231 19.9479166666667  23.1850961538462 19.7591145833333  23.4014423076923 19.62890625  C 23.7379807692308 19.4596354166667  24.0625 19.21875  24.375 18.90625  C 24.5673076923077 18.6979166666667  24.7776442307692 18.6458333333333  25.0060096153846 18.75  Z M 30 8.75  C 30 9.08854166666666  29.8858173076923 9.38151041666666  29.6574519230769 9.62890625  L 22.734375 17.12890625  C 22.5180288461538 17.3763020833333  22.2475961538462 17.5  21.9230769230769 17.5  C 21.7788461538462 17.5  21.6286057692308 17.4674479166667  21.4723557692308 17.40234375  C 21.0036057692308 17.1809895833333  20.7692307692308 16.796875  20.7692307692308 16.25  L 20.7692307692308 12.5  L 17.8846153846154 12.5  C 14.0024038461538 12.5  11.3701923076923 13.3528645833333  9.98798076923077 15.05859375  C 8.55769230769231 16.8424479166667  8.11298076923077 19.921875  8.65384615384615 24.296875  C 8.68990384615385 24.5963541666667  8.56971153846154 24.8177083333333  8.29326923076923 24.9609375  C 8.19711538461539 24.9869791666667  8.125 25  8.07692307692308 25  C 7.88461538461539 25  7.72836538461539 24.9153645833333  7.60817307692308 24.74609375  C 7.48798076923077 24.5638020833333  7.36177884615385 24.3619791666667  7.22956730769231 24.140625  C 7.09735576923077 23.9192708333333  6.85997596153846 23.4733072916667  6.51742788461538 22.802734375  C 6.17487980769231 22.1321614583333  5.87740384615385 21.484375  5.625 20.859375  C 5.37259615384615 20.234375  5.14122596153846 19.4921875  4.93088942307692 18.6328125  C 4.72055288461539 17.7734375  4.61538461538462 16.9791666666667  4.61538461538462 16.25  C 4.61538461538462 15.6119791666667  4.63641826923077 15.01953125  4.67848557692308 14.47265625  C 4.72055288461539 13.92578125  4.8046875 13.33984375  4.93088942307692 12.71484375  C 5.05709134615385 12.08984375  5.22536057692308 11.5169270833333  5.43569711538462 10.99609375  C 5.64603365384615 10.4752604166667  5.92848557692308 9.94466145833333  6.28305288461538 9.404296875  C 6.63762019230769 8.86393229166667  7.04927884615385 8.38216145833333  7.51802884615385 7.958984375  C 7.98677884615385 7.53580729166667  8.5546875 7.13541666666667  9.22175480769231 6.7578125  C 9.88882211538462 6.38020833333333  10.6370192307692 6.064453125  11.4663461538462 5.810546875  C 12.2956730769231 5.556640625  13.2542067307692 5.35807291666666  14.3419471153846 5.21484375  C 15.4296875 5.07161458333333  16.6105769230769 5  17.8846153846154 5  L 20.7692307692308 5  L 20.7692307692308 1.25  C 20.7692307692308 0.703125  21.0036057692308 0.319010416666664  21.4723557692308 0.0976562500000011  C 21.6286057692308 0.0325520833333359  21.7788461538462 0  21.9230769230769 0  C 22.2355769230769 0  22.5060096153846 0.123697916666669  22.734375 0.371093749999999  L 29.6574519230769 7.87109375  C 29.8858173076923 8.11848958333333  30 8.41145833333333  30 8.75  Z " fill-rule="nonzero" fill="#000000" stroke="none" transform="matrix(1 0 0 1 665 1256 )" />
  </g>
</svg>