<?xml version="1.0" encoding="utf-8"?>
<svg version="1.1" xmlns:xlink="http://www.w3.org/1999/xlink" width="23px" height="28px" xmlns="http://www.w3.org/2000/svg">
  <g transform="matrix(1 0 0 1 -938 -1257 )">
    <path d="M 14.008276533593 27.8110795454545  C 13.8664394677053 27.9370265151515  13.6984745212593 28  13.5043816942551 28  L 9.65238558909445 28  C 9.45829276209023 28  9.29032781564427 27.9403409090909  9.14849074975657 27.8210227272727  C 9.00665368386887 27.7017045454545  8.93573515092502 27.5492424242424  8.93573515092502 27.3636363636364  L 8.93573515092502 20.8011363636364  L 2.48588120740019 20.8011363636364  C 2.29178838039598 20.8011363636364  2.12382343395002 20.7414772727273  1.98198636806232 20.6221590909091  C 1.84014930217462 20.5028409090909  1.76923076923077 20.3503787878788  1.76923076923077 20.1647727272727  L 1.76923076923077 18.1164772727273  C 1.76923076923077 17.9441287878788  1.84014930217462 17.7949810606061  1.98198636806232 17.6690340909091  C 2.12382343395002 17.5430871212121  2.29178838039598 17.4801136363636  2.48588120740019 17.4801136363636  L 8.93573515092502 17.4801136363636  L 8.93573515092502 15.7897727272727  L 2.48588120740019 15.7897727272727  C 2.29178838039598 15.7897727272727  2.12382343395002 15.7301136363636  1.98198636806232 15.6107954545455  C 1.84014930217462 15.4914772727273  1.76923076923077 15.3390151515152  1.76923076923077 15.1534090909091  L 1.76923076923077 13.0852272727273  C 1.76923076923077 12.9128787878788  1.84014930217462 12.7637310606061  1.98198636806232 12.6377840909091  C 2.12382343395002 12.5118371212121  2.29178838039598 12.4488636363636  2.48588120740019 12.4488636363636  L 7.27848101265823 12.4488636363636  L 0.0895813047711782 0.954545454545454  C -0.0298604349237261 0.742424242424242  -0.0298604349237261 0.530303030303027  0.0895813047711782 0.318181818181818  C 0.238883479389809 0.106060606060606  0.447906523855891 0  0.716650438169426 0  L 5.06134371957157 0  C 5.34501785134697 0  5.56150600454398 0.119318181818182  5.71080817916261 0.357954545454546  L 10.5258033106134 8.80965909090909  C 10.8094774423888 9.31344696969697  11.227523531321 10.1420454545455  11.7799415774099 11.2954545454545  C 11.9292437520286 10.9772727272727  12.156929568322 10.5265151515151  12.4629990262902 9.94318181818182  C 12.7690684842584 9.35984848484848  12.974358974359 8.95549242424242  13.078870496592 8.73011363636364  L 17.3563777994158 0.377840909090911  C 17.4758195391107 0.125946969696967  17.6923076923077 0  18.0058422590068 0  L 22.2833495618306 0  C 22.5371632586822 0  22.7387211944174 0.106060606060606  22.888023369036 0.318181818181818  C 23.0223953261928 0.503787878787878  23.0298604349237 0.709280303030301  22.9104186952288 0.93465909090909  L 15.9006815968841 12.4488636363636  L 20.715676728335 12.4488636363636  C 20.9097695553392 12.4488636363636  21.0777345017851 12.5118371212121  21.2195715676728 12.6377840909091  C 21.3614086335605 12.7637310606061  21.4323271665044 12.9128787878788  21.4323271665044 13.0852272727273  L 21.4323271665044 15.1534090909091  C 21.4323271665044 15.3390151515152  21.3614086335605 15.4914772727273  21.2195715676728 15.6107954545455  C 21.0777345017851 15.7301136363636  20.9097695553392 15.7897727272727  20.715676728335 15.7897727272727  L 14.2210321324245 15.7897727272727  L 14.2210321324245 17.4801136363636  L 20.715676728335 17.4801136363636  C 20.9097695553392 17.4801136363636  21.0777345017851 17.5430871212121  21.2195715676728 17.6690340909091  C 21.3614086335605 17.7949810606061  21.4323271665044 17.9441287878788  21.4323271665044 18.1164772727273  L 21.4323271665044 20.1647727272727  C 21.4323271665044 20.3503787878788  21.3614086335605 20.5028409090909  21.2195715676728 20.6221590909091  C 21.0777345017851 20.7414772727273  20.9097695553392 20.8011363636364  20.715676728335 20.8011363636364  L 14.2210321324245 20.8011363636364  L 14.2210321324245 27.3636363636364  C 14.2210321324245 27.5359848484849  14.1501135994807 27.6851325757576  14.008276533593 27.8110795454545  Z " fill-rule="nonzero" fill="#000000" stroke="none" transform="matrix(1 0 0 1 938 1257 )" />
  </g>
</svg>