<?xml version="1.0" encoding="utf-8"?>
<svg version="1.1" xmlns:xlink="http://www.w3.org/1999/xlink" width="22px" height="18px" xmlns="http://www.w3.org/2000/svg">
  <g transform="matrix(1 0 0 1 -123 -891 )">
    <path d="M 4.75566087414429 4.87722772277228  C 5.04528699315429 4.58019801980198  5.19010005265929 4.22178217821782  5.19010005265929 3.8019801980198  C 5.19010005265929 3.38217821782178  5.04528699315429 3.02376237623762  4.75566087414429 2.72673267326733  C 4.46603475513428 2.42970297029703  4.11655257152888 2.28118811881188  3.70721432332807 2.28118811881188  C 3.29787607512726 2.28118811881188  2.94839389152185 2.42970297029703  2.65876777251185 2.72673267326733  C 2.36914165350184 3.02376237623762  2.22432859399684 3.38217821782178  2.22432859399684 3.8019801980198  C 2.22432859399684 4.22178217821782  2.36914165350184 4.58019801980198  2.65876777251185 4.87722772277228  C 2.94839389152185 5.17425742574257  3.29787607512726 5.32277227722772  3.70721432332807 5.32277227722772  C 4.11655257152888 5.32277227722772  4.46603475513428 5.17425742574257  4.75566087414429 4.87722772277228  Z M 17.1226961558715 9.56435643564356  C 17.4084605932947 9.87326732673267  17.5513428120063 10.2336633663366  17.5513428120063 10.6455445544554  C 17.5513428120063 11.0653465346535  17.4084605932947 11.4217821782178  17.1226961558715 11.7148514851485  L 11.434439178515 17.560396039604  C 11.1332280147446 17.8534653465347  10.7818149903458 18  10.3802001053186 18  C 9.97086185711778 18  9.62331051430578 17.8534653465347  9.33754607688257 17.560396039604  L 1.05423907319642 9.05346534653465  C 0.760751272599614 8.76039603960396  0.511672810251009 8.36039603960396  0.307003686150606 7.85346534653465  C 0.102334562050202 7.34653465346535  0 6.88316831683168  0 6.46336633663366  L 0 1.52079207920792  C 0 1.10891089108911  0.146743900298403 0.752475247524752  0.440231700895208 0.451485148514851  C 0.733719501492013 0.150495049504949  1.08127084430402 0  1.48288572933123 0  L 6.30226434965771 0  C 6.71160259785852 0  7.16341934351413 0.104950495049503  7.65771458662454 0.314851485148514  C 8.15200982973495 0.524752475247523  8.54590135158856 0.780198019801978  8.83938915218536 1.08118811881188  L 17.1226961558715 9.56435643564356  Z M 21.5713533438652 9.56435643564356  C 21.8571177812884 9.87326732673267  22 10.2336633663366  22 10.6455445544554  C 22 11.0653465346535  21.8571177812884 11.4217821782178  21.5713533438652 11.7148514851485  L 15.8830963665087 17.560396039604  C 15.5818852027383 17.8534653465347  15.2304721783395 18  14.8288572933123 18  C 14.5508162190627 18  14.3229770054415 17.9445544554455  14.1453396524487 17.8336633663366  C 13.9677022994559 17.7227722772277  13.7630331753555 17.5445544554455  13.5313322801474 17.2990099009901  L 18.9763033175355 11.7148514851485  C 19.2620677549588 11.4217821782178  19.4049499736704 11.0653465346535  19.4049499736704 10.6455445544554  C 19.4049499736704 10.2336633663366  19.2620677549588 9.87326732673267  18.9763033175355 9.56435643564356  L 10.6929963138494 1.08118811881188  C 10.3995085132526 0.780198019801978  10.005616991399 0.524752475247523  9.51132174828857 0.314851485148514  C 9.01702650517817 0.104950495049503  8.56520975952256 0  8.15587151132175 0  L 10.7509215376514 0  C 11.1602597858522 0  11.6120765315078 0.104950495049503  12.1063717746182 0.314851485148514  C 12.6006670177286 0.524752475247523  12.9945585395822 0.780198019801978  13.288046340179 1.08118811881188  L 21.5713533438652 9.56435643564356  Z " fill-rule="nonzero" fill="#4b7902" stroke="none" fill-opacity="0.854901960784314" transform="matrix(1 0 0 1 123 891 )" />
  </g>
</svg>