<?xml version="1.0" encoding="utf-8"?>
<svg version="1.1" xmlns:xlink="http://www.w3.org/1999/xlink" width="30px" height="27px" xmlns="http://www.w3.org/2000/svg">
  <g transform="matrix(1 0 0 1 -534 -1258 )">
    <path d="M 13.9910313901345 20.25  L 14.932735426009 20.25  L 16.8834080717489 18.0255681818182  L 14.3273542600897 15.1107954545455  L 12.3766816143498 17.3352272727273  L 12.3766816143498 18.4090909090909  L 13.9910313901345 18.4090909090909  L 13.9910313901345 20.25  Z M 22.3150224215247 7.07599431818182  C 22.5056053811659 6.85866477272727  22.5112107623318 6.64772727272727  22.3318385650224 6.44318181818182  C 22.152466367713 6.23863636363636  21.9674887892377 6.24502840909091  21.7769058295964 6.46235795454546  L 15.8912556053812 13.1740056818182  C 15.7006726457399 13.3913352272727  15.695067264574 13.6022727272727  15.8744394618834 13.8068181818182  C 16.0538116591928 14.0113636363636  16.2387892376682 14.0049715909091  16.4293721973094 13.7876420454545  L 22.3150224215247 7.07599431818182  Z M 23.3408071748879 17.2776988636364  C 23.5650224215247 17.3799715909091  23.677130044843 17.5653409090909  23.677130044843 17.8338068181818  L 23.677130044843 21.4772727272727  C 23.677130044843 22.9985795454545  23.2034753363229 24.2993607954545  22.2561659192825 25.3796164772727  C 21.3088565022422 26.4598721590909  20.1681614349776 27  18.8340807174888 27  L 4.84304932735426 27  C 3.50896860986547 27  2.3682735426009 26.4598721590909  1.42096412556054 25.3796164772727  C 0.473654708520179 24.2993607954545  0 22.9985795454545  0 21.4772727272727  L 0 5.52272727272727  C 0 4.00142045454545  0.473654708520179 2.70063920454545  1.42096412556054 1.62038352272727  C 2.3682735426009 0.540127840909088  3.50896860986547 0  4.84304932735426 0  L 18.8340807174888 0  C 19.5403587443946 0  20.1961883408072 0.159801136363635  20.8015695067265 0.479403409090908  C 20.969730941704 0.568892045454544  21.0706278026906 0.71590909090909  21.1042600896861 0.920454545454545  C 21.1378923766816 1.13778409090909  21.0874439461883 1.32315340909091  20.9529147982063 1.4765625  L 20.1289237668161 2.41619318181818  C 19.9719730941704 2.59517045454545  19.792600896861 2.64630681818182  19.5908071748879 2.56960227272727  C 19.3329596412556 2.49289772727273  19.0807174887892 2.45454545454546  18.8340807174888 2.45454545454546  L 4.84304932735426 2.45454545454546  C 4.10313901345291 2.45454545454546  3.46973094170404 2.75497159090909  2.94282511210762 3.35582386363636  C 2.41591928251121 3.95667613636363  2.152466367713 4.67897727272727  2.152466367713 5.52272727272727  L 2.152466367713 21.4772727272727  C 2.152466367713 22.3210227272727  2.41591928251121 23.0433238636364  2.94282511210762 23.6441761363636  C 3.46973094170404 24.2450284090909  4.10313901345291 24.5454545454545  4.84304932735426 24.5454545454545  L 18.8340807174888 24.5454545454545  C 19.5739910313901 24.5454545454545  20.207399103139 24.2450284090909  20.7343049327354 23.6441761363636  C 21.2612107623318 23.0433238636364  21.52466367713 22.3210227272727  21.52466367713 21.4772727272727  L 21.52466367713 19.0610795454545  C 21.52466367713 18.8948863636364  21.5751121076233 18.7542613636364  21.6760089686099 18.6392045454545  L 22.7522421524664 17.4119318181818  C 22.9204035874439 17.2201704545455  23.1165919282511 17.1754261363636  23.3408071748879 17.2776988636364  Z M 10.762331838565 16.5681818181818  L 22.0627802690583 3.68181818181818  L 26.9058295964126 9.20454545454546  L 15.6053811659193 22.0909090909091  L 10.762331838565 22.0909090909091  L 10.762331838565 16.5681818181818  Z M 30 4.90909090909091  C 30 5.42045454545454  29.8430493273543 5.85511363636363  29.5291479820628 6.21306818181818  L 27.9820627802691 7.97727272727273  L 23.1390134529148 2.45454545454546  L 24.6860986547085 0.690340909090908  C 25 0.332386363636361  25.3811659192825 0.153409090909092  25.8295964125561 0.153409090909092  C 26.2780269058296 0.153409090909092  26.6591928251121 0.332386363636361  26.9730941704036 0.690340909090908  L 29.5291479820628 3.60511363636364  C 29.8430493273543 3.96306818181818  30 4.39772727272727  30 4.90909090909091  Z " fill-rule="nonzero" fill="#000000" stroke="none" transform="matrix(1 0 0 1 534 1258 )" />
  </g>
</svg>